<mxfile host="app.diagrams.net" modified="2022-06-30T06:33:21.159Z" agent="5.0 (Macintosh; Intel Mac OS X 10_15_7) AppleWebKit/537.36 (KHTML, like Gecko) Chrome/103.0.0.0 Safari/537.36" etag="_1Ib4GQOMiGP5wLOJ4XK" version="20.0.4" type="github" pages="2">
  <diagram id="yWfkEN6stDbMMAQWu_4j" name="Page-1">
    <mxGraphModel dx="2148" dy="1864" grid="1" gridSize="10" guides="1" tooltips="1" connect="1" arrows="1" fold="1" page="1" pageScale="1" pageWidth="850" pageHeight="1100" math="0" shadow="0">
      <root>
        <mxCell id="0" />
        <mxCell id="1" parent="0" />
        <mxCell id="8NphUOH1nOsl3VNIefFu-1" value="&lt;font style=&quot;font-size: 15px;&quot;&gt;&lt;b&gt;Functional Requirements&lt;br&gt;&lt;/b&gt;&lt;br&gt;&lt;div style=&quot;text-align: left;&quot;&gt;&lt;span style=&quot;background-color: initial;&quot;&gt;- User Signup&lt;/span&gt;&lt;/div&gt;&lt;div style=&quot;text-align: left;&quot;&gt;&lt;span style=&quot;background-color: initial;&quot;&gt;- Follow&lt;/span&gt;&lt;/div&gt;&lt;div style=&quot;text-align: left;&quot;&gt;&lt;span style=&quot;background-color: initial;&quot;&gt;- Post&lt;/span&gt;&lt;/div&gt;&lt;div style=&quot;text-align: left;&quot;&gt;&lt;span style=&quot;background-color: initial;&quot;&gt;- Activity timeline&lt;/span&gt;&lt;/div&gt;&lt;div style=&quot;text-align: left;&quot;&gt;&lt;span style=&quot;background-color: initial;&quot;&gt;- Own timeline&lt;/span&gt;&lt;/div&gt;&lt;div style=&quot;text-align: left;&quot;&gt;&lt;span style=&quot;background-color: initial;&quot;&gt;- Search&lt;/span&gt;&lt;/div&gt;&lt;div style=&quot;text-align: left;&quot;&gt;&lt;span style=&quot;background-color: initial;&quot;&gt;- Trends&lt;/span&gt;&lt;/div&gt;&lt;/font&gt;" style="text;html=1;align=center;verticalAlign=middle;resizable=0;points=[];autosize=1;strokeColor=none;fillColor=none;" parent="1" vertex="1">
          <mxGeometry x="-30" y="-5" width="200" height="130" as="geometry" />
        </mxCell>
        <mxCell id="8NphUOH1nOsl3VNIefFu-2" value="&lt;b&gt;Non Functional Req&lt;/b&gt;&lt;br&gt;&lt;div style=&quot;text-align: left;&quot;&gt;&lt;b style=&quot;font-weight: bold; background-color: initial;&quot;&gt;- &lt;/b&gt;&lt;span style=&quot;background-color: initial;&quot;&gt;High availability&lt;/span&gt;&lt;/div&gt;&lt;div style=&quot;text-align: left;&quot;&gt;&lt;span style=&quot;background-color: initial;&quot;&gt;- Low latency&lt;/span&gt;&lt;/div&gt;&lt;div style=&quot;text-align: left;&quot;&gt;&lt;span style=&quot;background-color: initial;&quot;&gt;- Eventual Consistency&lt;/span&gt;&lt;/div&gt;&lt;div style=&quot;text-align: left;&quot;&gt;&lt;span style=&quot;background-color: initial;&quot;&gt;- Monitoring&lt;/span&gt;&lt;/div&gt;" style="text;html=1;align=center;verticalAlign=middle;resizable=0;points=[];autosize=1;strokeColor=none;fillColor=none;fontSize=15;" parent="1" vertex="1">
          <mxGeometry x="185" y="-40" width="170" height="100" as="geometry" />
        </mxCell>
        <mxCell id="8NphUOH1nOsl3VNIefFu-5" value="" style="edgeStyle=orthogonalEdgeStyle;rounded=0;orthogonalLoop=1;jettySize=auto;html=1;fontSize=15;" parent="1" source="8NphUOH1nOsl3VNIefFu-3" target="8NphUOH1nOsl3VNIefFu-4" edge="1">
          <mxGeometry relative="1" as="geometry" />
        </mxCell>
        <mxCell id="8NphUOH1nOsl3VNIefFu-3" value="User" style="shape=umlActor;verticalLabelPosition=bottom;verticalAlign=top;html=1;outlineConnect=0;fontSize=15;" parent="1" vertex="1">
          <mxGeometry x="10" y="180" width="30" height="60" as="geometry" />
        </mxCell>
        <mxCell id="8NphUOH1nOsl3VNIefFu-7" value="" style="edgeStyle=orthogonalEdgeStyle;rounded=0;orthogonalLoop=1;jettySize=auto;html=1;fontSize=15;" parent="1" source="8NphUOH1nOsl3VNIefFu-4" target="8NphUOH1nOsl3VNIefFu-6" edge="1">
          <mxGeometry relative="1" as="geometry" />
        </mxCell>
        <mxCell id="8NphUOH1nOsl3VNIefFu-4" value="User Service" style="whiteSpace=wrap;html=1;fontSize=15;verticalAlign=top;" parent="1" vertex="1">
          <mxGeometry x="130" y="180" width="120" height="60" as="geometry" />
        </mxCell>
        <mxCell id="8NphUOH1nOsl3VNIefFu-6" value="DB" style="shape=cylinder3;whiteSpace=wrap;html=1;boundedLbl=1;backgroundOutline=1;size=15;fontSize=15;" parent="1" vertex="1">
          <mxGeometry x="355" y="170" width="60" height="80" as="geometry" />
        </mxCell>
        <mxCell id="8NphUOH1nOsl3VNIefFu-8" value="&lt;b&gt;User&lt;/b&gt;&lt;br&gt;&lt;div style=&quot;text-align: left;&quot;&gt;&lt;span style=&quot;background-color: initial;&quot;&gt;- User Id&lt;/span&gt;&lt;/div&gt;&lt;div style=&quot;text-align: left;&quot;&gt;&lt;span style=&quot;background-color: initial;&quot;&gt;- First Name&lt;/span&gt;&lt;/div&gt;&lt;div style=&quot;text-align: left;&quot;&gt;&lt;span style=&quot;background-color: initial;&quot;&gt;- Last Name&lt;/span&gt;&lt;/div&gt;&lt;div style=&quot;text-align: left;&quot;&gt;&lt;span style=&quot;background-color: initial;&quot;&gt;- Mob&lt;/span&gt;&lt;/div&gt;&lt;div style=&quot;text-align: left;&quot;&gt;&lt;span style=&quot;background-color: initial;&quot;&gt;- Email&lt;/span&gt;&lt;/div&gt;&lt;div style=&quot;text-align: left;&quot;&gt;&lt;span style=&quot;background-color: initial;&quot;&gt;- Joined At&lt;/span&gt;&lt;/div&gt;" style="shape=callout;whiteSpace=wrap;html=1;perimeter=calloutPerimeter;fontSize=15;direction=south;" parent="1" vertex="1">
          <mxGeometry x="425" y="150" width="225" height="130" as="geometry" />
        </mxCell>
        <mxCell id="8NphUOH1nOsl3VNIefFu-11" value="" style="edgeStyle=orthogonalEdgeStyle;rounded=0;orthogonalLoop=1;jettySize=auto;html=1;fontSize=15;" parent="1" source="8NphUOH1nOsl3VNIefFu-9" target="8NphUOH1nOsl3VNIefFu-10" edge="1">
          <mxGeometry relative="1" as="geometry" />
        </mxCell>
        <mxCell id="8NphUOH1nOsl3VNIefFu-18" value="Post" style="edgeLabel;html=1;align=center;verticalAlign=middle;resizable=0;points=[];fontSize=15;" parent="8NphUOH1nOsl3VNIefFu-11" vertex="1" connectable="0">
          <mxGeometry x="-0.2889" relative="1" as="geometry">
            <mxPoint as="offset" />
          </mxGeometry>
        </mxCell>
        <mxCell id="8NphUOH1nOsl3VNIefFu-9" value="Actor" style="shape=umlActor;verticalLabelPosition=bottom;verticalAlign=top;html=1;outlineConnect=0;fontSize=15;" parent="1" vertex="1">
          <mxGeometry x="10" y="360" width="30" height="60" as="geometry" />
        </mxCell>
        <mxCell id="8NphUOH1nOsl3VNIefFu-13" value="" style="edgeStyle=orthogonalEdgeStyle;rounded=0;orthogonalLoop=1;jettySize=auto;html=1;fontSize=15;" parent="1" source="8NphUOH1nOsl3VNIefFu-10" edge="1">
          <mxGeometry relative="1" as="geometry">
            <mxPoint x="330" y="390" as="targetPoint" />
          </mxGeometry>
        </mxCell>
        <mxCell id="8NphUOH1nOsl3VNIefFu-10" value="Tweet Service&lt;br&gt;- Validate" style="whiteSpace=wrap;html=1;fontSize=15;verticalAlign=top;" parent="1" vertex="1">
          <mxGeometry x="130" y="360" width="120" height="60" as="geometry" />
        </mxCell>
        <mxCell id="8NphUOH1nOsl3VNIefFu-17" value="" style="edgeStyle=orthogonalEdgeStyle;rounded=0;orthogonalLoop=1;jettySize=auto;html=1;fontSize=15;" parent="1" source="8NphUOH1nOsl3VNIefFu-15" target="8NphUOH1nOsl3VNIefFu-16" edge="1">
          <mxGeometry relative="1" as="geometry" />
        </mxCell>
        <mxCell id="8NphUOH1nOsl3VNIefFu-22" value="" style="edgeStyle=orthogonalEdgeStyle;rounded=0;orthogonalLoop=1;jettySize=auto;html=1;fontSize=15;" parent="1" source="8NphUOH1nOsl3VNIefFu-15" target="8NphUOH1nOsl3VNIefFu-21" edge="1">
          <mxGeometry relative="1" as="geometry" />
        </mxCell>
        <mxCell id="8NphUOH1nOsl3VNIefFu-25" style="edgeStyle=orthogonalEdgeStyle;rounded=0;orthogonalLoop=1;jettySize=auto;html=1;fontSize=15;" parent="1" source="8NphUOH1nOsl3VNIefFu-15" edge="1">
          <mxGeometry relative="1" as="geometry">
            <mxPoint x="190" y="550" as="targetPoint" />
            <Array as="points">
              <mxPoint x="380" y="450" />
              <mxPoint x="190" y="450" />
            </Array>
          </mxGeometry>
        </mxCell>
        <mxCell id="8NphUOH1nOsl3VNIefFu-15" value="Queue" style="strokeWidth=2;html=1;shape=mxgraph.flowchart.direct_data;whiteSpace=wrap;fontSize=15;" parent="1" vertex="1">
          <mxGeometry x="330" y="360" width="100" height="60" as="geometry" />
        </mxCell>
        <mxCell id="8NphUOH1nOsl3VNIefFu-20" value="" style="edgeStyle=orthogonalEdgeStyle;rounded=0;orthogonalLoop=1;jettySize=auto;html=1;fontSize=15;" parent="1" source="8NphUOH1nOsl3VNIefFu-16" target="8NphUOH1nOsl3VNIefFu-19" edge="1">
          <mxGeometry relative="1" as="geometry" />
        </mxCell>
        <mxCell id="8NphUOH1nOsl3VNIefFu-16" value="Post Tweet" style="whiteSpace=wrap;html=1;fontSize=15;strokeWidth=2;" parent="1" vertex="1">
          <mxGeometry x="500" y="360" width="120" height="60" as="geometry" />
        </mxCell>
        <mxCell id="8NphUOH1nOsl3VNIefFu-19" value="Tweet Store" style="strokeWidth=2;html=1;shape=mxgraph.flowchart.database;whiteSpace=wrap;fontSize=15;" parent="1" vertex="1">
          <mxGeometry x="690" y="340" width="60" height="100" as="geometry" />
        </mxCell>
        <mxCell id="8NphUOH1nOsl3VNIefFu-24" value="" style="edgeStyle=orthogonalEdgeStyle;rounded=0;orthogonalLoop=1;jettySize=auto;html=1;fontSize=15;" parent="1" source="8NphUOH1nOsl3VNIefFu-21" target="8NphUOH1nOsl3VNIefFu-23" edge="1">
          <mxGeometry relative="1" as="geometry" />
        </mxCell>
        <mxCell id="8NphUOH1nOsl3VNIefFu-21" value="Tokeniser Service" style="whiteSpace=wrap;html=1;fontSize=15;strokeWidth=2;" parent="1" vertex="1">
          <mxGeometry x="320" y="500" width="120" height="60" as="geometry" />
        </mxCell>
        <mxCell id="8NphUOH1nOsl3VNIefFu-23" value="Index DB" style="strokeWidth=2;html=1;shape=mxgraph.flowchart.database;whiteSpace=wrap;fontSize=15;" parent="1" vertex="1">
          <mxGeometry x="490" y="480" width="60" height="100" as="geometry" />
        </mxCell>
        <mxCell id="8NphUOH1nOsl3VNIefFu-28" value="" style="edgeStyle=orthogonalEdgeStyle;rounded=0;orthogonalLoop=1;jettySize=auto;html=1;fontSize=15;" parent="1" source="8NphUOH1nOsl3VNIefFu-26" target="8NphUOH1nOsl3VNIefFu-27" edge="1">
          <mxGeometry relative="1" as="geometry" />
        </mxCell>
        <mxCell id="8NphUOH1nOsl3VNIefFu-26" value="Timeline Service" style="whiteSpace=wrap;html=1;fontSize=15;" parent="1" vertex="1">
          <mxGeometry x="130" y="540" width="120" height="60" as="geometry" />
        </mxCell>
        <mxCell id="8NphUOH1nOsl3VNIefFu-27" value="Timeline DB" style="strokeWidth=2;html=1;shape=mxgraph.flowchart.database;whiteSpace=wrap;fontSize=15;" parent="1" vertex="1">
          <mxGeometry x="30" y="525" width="60" height="90" as="geometry" />
        </mxCell>
        <mxCell id="8NphUOH1nOsl3VNIefFu-29" value="Tweet Id&lt;br&gt;Creation Date&lt;br&gt;Created By" style="text;html=1;align=center;verticalAlign=middle;resizable=0;points=[];autosize=1;strokeColor=none;fillColor=none;fontSize=15;" parent="1" vertex="1">
          <mxGeometry x="770" y="330" width="110" height="60" as="geometry" />
        </mxCell>
        <mxCell id="8NphUOH1nOsl3VNIefFu-30" value="Tweet Id&lt;br&gt;Tweet Content" style="text;html=1;align=center;verticalAlign=middle;resizable=0;points=[];autosize=1;strokeColor=none;fillColor=none;fontSize=15;" parent="1" vertex="1">
          <mxGeometry x="770" y="400" width="110" height="40" as="geometry" />
        </mxCell>
      </root>
    </mxGraphModel>
  </diagram>
  <diagram id="SupA1GSxmrdUloK7GgUn" name="Twitter">
    <mxGraphModel dx="1298" dy="764" grid="1" gridSize="10" guides="1" tooltips="1" connect="1" arrows="1" fold="1" page="1" pageScale="1" pageWidth="850" pageHeight="1100" math="0" shadow="0">
      <root>
        <mxCell id="0" />
        <mxCell id="1" parent="0" />
        <mxCell id="rAkRA9WJjYrgo6uiygBs-2" value="&lt;h1&gt;&lt;font style=&quot;font-size: 24px;&quot;&gt;NFR&lt;/font&gt;&lt;/h1&gt;&lt;p&gt;- High availability&lt;/p&gt;&lt;p&gt;- Read Heavy system&lt;/p&gt;&lt;p&gt;- Fast loading&lt;/p&gt;" style="text;html=1;strokeColor=#666666;fillColor=#f5f5f5;spacing=5;spacingTop=-20;whiteSpace=wrap;overflow=hidden;rounded=0;fontSize=18;fontColor=#333333;" vertex="1" parent="1">
          <mxGeometry x="330" y="30" width="200" height="220" as="geometry" />
        </mxCell>
        <mxCell id="rAkRA9WJjYrgo6uiygBs-1" value="&lt;h1&gt;FR&lt;/h1&gt;&lt;p&gt;&lt;font style=&quot;font-size: 18px;&quot;&gt;- Post a tweet&lt;/font&gt;&lt;/p&gt;&lt;p&gt;&lt;font style=&quot;font-size: 18px;&quot;&gt;- Follow others&lt;/font&gt;&lt;/p&gt;&lt;p&gt;&lt;font style=&quot;font-size: 18px;&quot;&gt;- User timeline&lt;/font&gt;&lt;/p&gt;&lt;p&gt;&lt;font style=&quot;font-size: 18px;&quot;&gt;- Home Timeline&lt;/font&gt;&lt;/p&gt;&lt;p&gt;&lt;font style=&quot;font-size: 18px;&quot;&gt;- Search&lt;/font&gt;&lt;/p&gt;&lt;p&gt;&lt;font style=&quot;font-size: 18px;&quot;&gt;- Trends&lt;/font&gt;&lt;/p&gt;" style="text;html=1;spacing=5;spacingTop=-20;whiteSpace=wrap;overflow=hidden;rounded=0;fillColor=#f5f5f5;fontColor=#333333;strokeColor=#666666;" vertex="1" parent="1">
          <mxGeometry x="50" y="30" width="250" height="260" as="geometry" />
        </mxCell>
        <mxCell id="rAkRA9WJjYrgo6uiygBs-5" value="" style="edgeStyle=orthogonalEdgeStyle;rounded=0;orthogonalLoop=1;jettySize=auto;html=1;fontSize=18;" edge="1" parent="1" source="rAkRA9WJjYrgo6uiygBs-3" target="rAkRA9WJjYrgo6uiygBs-4">
          <mxGeometry relative="1" as="geometry" />
        </mxCell>
        <mxCell id="rAkRA9WJjYrgo6uiygBs-3" value="&lt;font style=&quot;font-size: 18px;&quot;&gt;User Onboarding&lt;/font&gt;" style="rounded=1;whiteSpace=wrap;html=1;fontSize=24;fillColor=none;" vertex="1" parent="1">
          <mxGeometry x="40" y="360" width="120" height="60" as="geometry" />
        </mxCell>
        <mxCell id="rAkRA9WJjYrgo6uiygBs-8" value="" style="edgeStyle=orthogonalEdgeStyle;rounded=0;orthogonalLoop=1;jettySize=auto;html=1;fontSize=18;" edge="1" parent="1" source="rAkRA9WJjYrgo6uiygBs-4" target="rAkRA9WJjYrgo6uiygBs-7">
          <mxGeometry relative="1" as="geometry" />
        </mxCell>
        <mxCell id="rAkRA9WJjYrgo6uiygBs-4" value="&lt;font style=&quot;font-size: 18px;&quot;&gt;LB&lt;/font&gt;" style="whiteSpace=wrap;html=1;fontSize=24;fillColor=none;rounded=1;" vertex="1" parent="1">
          <mxGeometry x="220" y="360" width="30" height="60" as="geometry" />
        </mxCell>
        <mxCell id="rAkRA9WJjYrgo6uiygBs-10" value="" style="edgeStyle=orthogonalEdgeStyle;rounded=0;orthogonalLoop=1;jettySize=auto;html=1;fontSize=18;" edge="1" parent="1" source="rAkRA9WJjYrgo6uiygBs-7" target="rAkRA9WJjYrgo6uiygBs-9">
          <mxGeometry relative="1" as="geometry" />
        </mxCell>
        <mxCell id="rAkRA9WJjYrgo6uiygBs-14" style="edgeStyle=orthogonalEdgeStyle;rounded=0;orthogonalLoop=1;jettySize=auto;html=1;fontSize=18;" edge="1" parent="1" source="rAkRA9WJjYrgo6uiygBs-7" target="rAkRA9WJjYrgo6uiygBs-13">
          <mxGeometry relative="1" as="geometry" />
        </mxCell>
        <mxCell id="rAkRA9WJjYrgo6uiygBs-7" value="&lt;font style=&quot;font-size: 18px;&quot;&gt;User service&lt;/font&gt;" style="whiteSpace=wrap;html=1;fontSize=24;fillColor=none;rounded=1;" vertex="1" parent="1">
          <mxGeometry x="285" y="360" width="120" height="60" as="geometry" />
        </mxCell>
        <mxCell id="rAkRA9WJjYrgo6uiygBs-9" value="DB" style="shape=cylinder3;whiteSpace=wrap;html=1;boundedLbl=1;backgroundOutline=1;size=15;fontSize=18;fillColor=none;" vertex="1" parent="1">
          <mxGeometry x="520" y="300" width="60" height="80" as="geometry" />
        </mxCell>
        <mxCell id="rAkRA9WJjYrgo6uiygBs-11" value="Sharded MySQL or mongo" style="text;html=1;align=center;verticalAlign=middle;resizable=0;points=[];autosize=1;strokeColor=none;fillColor=none;fontSize=18;" vertex="1" parent="1">
          <mxGeometry x="590" y="330" width="240" height="40" as="geometry" />
        </mxCell>
        <mxCell id="rAkRA9WJjYrgo6uiygBs-13" value="Cache" style="shape=cylinder3;whiteSpace=wrap;html=1;boundedLbl=1;backgroundOutline=1;size=15;fontSize=18;fillColor=none;" vertex="1" parent="1">
          <mxGeometry x="520" y="420" width="60" height="80" as="geometry" />
        </mxCell>
        <mxCell id="rAkRA9WJjYrgo6uiygBs-17" value="" style="edgeStyle=orthogonalEdgeStyle;rounded=0;orthogonalLoop=1;jettySize=auto;html=1;fontSize=18;" edge="1" parent="1" source="rAkRA9WJjYrgo6uiygBs-15" target="rAkRA9WJjYrgo6uiygBs-16">
          <mxGeometry relative="1" as="geometry" />
        </mxCell>
        <mxCell id="rAkRA9WJjYrgo6uiygBs-15" value="User follow" style="rounded=1;whiteSpace=wrap;html=1;fontSize=18;fillColor=none;" vertex="1" parent="1">
          <mxGeometry x="40" y="560" width="120" height="60" as="geometry" />
        </mxCell>
        <mxCell id="rAkRA9WJjYrgo6uiygBs-19" value="" style="edgeStyle=orthogonalEdgeStyle;rounded=0;orthogonalLoop=1;jettySize=auto;html=1;fontSize=18;" edge="1" parent="1" source="rAkRA9WJjYrgo6uiygBs-16" target="rAkRA9WJjYrgo6uiygBs-18">
          <mxGeometry relative="1" as="geometry" />
        </mxCell>
        <mxCell id="rAkRA9WJjYrgo6uiygBs-16" value="&lt;font style=&quot;font-size: 18px;&quot;&gt;LB&lt;/font&gt;" style="whiteSpace=wrap;html=1;fontSize=24;fillColor=none;rounded=1;" vertex="1" parent="1">
          <mxGeometry x="220" y="560" width="30" height="60" as="geometry" />
        </mxCell>
        <mxCell id="rAkRA9WJjYrgo6uiygBs-21" value="" style="edgeStyle=orthogonalEdgeStyle;rounded=0;orthogonalLoop=1;jettySize=auto;html=1;fontSize=18;" edge="1" parent="1" source="rAkRA9WJjYrgo6uiygBs-18" target="rAkRA9WJjYrgo6uiygBs-20">
          <mxGeometry relative="1" as="geometry" />
        </mxCell>
        <mxCell id="tJ93AyjyxHUTEYS6ZVMy-2" value="" style="edgeStyle=orthogonalEdgeStyle;rounded=0;orthogonalLoop=1;jettySize=auto;html=1;fontSize=18;" edge="1" parent="1" source="rAkRA9WJjYrgo6uiygBs-18" target="tJ93AyjyxHUTEYS6ZVMy-1">
          <mxGeometry relative="1" as="geometry" />
        </mxCell>
        <mxCell id="rAkRA9WJjYrgo6uiygBs-18" value="&lt;span style=&quot;font-size: 18px;&quot;&gt;User graph service&lt;/span&gt;" style="whiteSpace=wrap;html=1;fontSize=24;fillColor=none;rounded=1;" vertex="1" parent="1">
          <mxGeometry x="286" y="560" width="120" height="60" as="geometry" />
        </mxCell>
        <mxCell id="rAkRA9WJjYrgo6uiygBs-20" value="DB" style="shape=cylinder3;whiteSpace=wrap;html=1;boundedLbl=1;backgroundOutline=1;size=15;fontSize=18;fillColor=none;" vertex="1" parent="1">
          <mxGeometry x="520" y="550" width="60" height="80" as="geometry" />
        </mxCell>
        <mxCell id="tJ93AyjyxHUTEYS6ZVMy-1" value="Kafka Q" style="strokeWidth=2;html=1;shape=mxgraph.flowchart.direct_data;whiteSpace=wrap;fontSize=18;fillColor=none;" vertex="1" parent="1">
          <mxGeometry x="283.5" y="680" width="125" height="60" as="geometry" />
        </mxCell>
        <mxCell id="tJ93AyjyxHUTEYS6ZVMy-5" value="" style="edgeStyle=orthogonalEdgeStyle;rounded=0;orthogonalLoop=1;jettySize=auto;html=1;fontSize=18;" edge="1" parent="1" source="tJ93AyjyxHUTEYS6ZVMy-3" target="tJ93AyjyxHUTEYS6ZVMy-4">
          <mxGeometry relative="1" as="geometry" />
        </mxCell>
        <mxCell id="tJ93AyjyxHUTEYS6ZVMy-3" value="Tweet Post" style="rounded=1;whiteSpace=wrap;html=1;fontSize=18;fillColor=none;" vertex="1" parent="1">
          <mxGeometry x="40" y="820" width="120" height="60" as="geometry" />
        </mxCell>
        <mxCell id="tJ93AyjyxHUTEYS6ZVMy-7" value="" style="edgeStyle=orthogonalEdgeStyle;rounded=0;orthogonalLoop=1;jettySize=auto;html=1;fontSize=18;" edge="1" parent="1" source="tJ93AyjyxHUTEYS6ZVMy-4" target="tJ93AyjyxHUTEYS6ZVMy-6">
          <mxGeometry relative="1" as="geometry" />
        </mxCell>
        <mxCell id="tJ93AyjyxHUTEYS6ZVMy-4" value="&lt;font style=&quot;font-size: 18px;&quot;&gt;LB&lt;/font&gt;" style="whiteSpace=wrap;html=1;fontSize=24;fillColor=none;rounded=1;" vertex="1" parent="1">
          <mxGeometry x="220" y="820" width="30" height="60" as="geometry" />
        </mxCell>
        <mxCell id="tJ93AyjyxHUTEYS6ZVMy-11" value="" style="edgeStyle=orthogonalEdgeStyle;rounded=0;orthogonalLoop=1;jettySize=auto;html=1;fontSize=16;" edge="1" parent="1" source="tJ93AyjyxHUTEYS6ZVMy-6" target="tJ93AyjyxHUTEYS6ZVMy-10">
          <mxGeometry relative="1" as="geometry" />
        </mxCell>
        <mxCell id="tJ93AyjyxHUTEYS6ZVMy-14" value="" style="edgeStyle=orthogonalEdgeStyle;rounded=0;orthogonalLoop=1;jettySize=auto;html=1;fontSize=16;" edge="1" parent="1" source="tJ93AyjyxHUTEYS6ZVMy-6" target="tJ93AyjyxHUTEYS6ZVMy-13">
          <mxGeometry relative="1" as="geometry" />
        </mxCell>
        <mxCell id="tJ93AyjyxHUTEYS6ZVMy-15" value="" style="edgeStyle=orthogonalEdgeStyle;rounded=0;orthogonalLoop=1;jettySize=auto;html=1;fontSize=18;" edge="1" parent="1" source="tJ93AyjyxHUTEYS6ZVMy-6" target="tJ93AyjyxHUTEYS6ZVMy-13">
          <mxGeometry relative="1" as="geometry" />
        </mxCell>
        <mxCell id="tJ93AyjyxHUTEYS6ZVMy-16" style="edgeStyle=orthogonalEdgeStyle;rounded=0;orthogonalLoop=1;jettySize=auto;html=1;fontSize=18;" edge="1" parent="1" source="tJ93AyjyxHUTEYS6ZVMy-6">
          <mxGeometry relative="1" as="geometry">
            <mxPoint x="400" y="920" as="targetPoint" />
          </mxGeometry>
        </mxCell>
        <mxCell id="tJ93AyjyxHUTEYS6ZVMy-18" style="edgeStyle=orthogonalEdgeStyle;rounded=0;orthogonalLoop=1;jettySize=auto;html=1;fontSize=18;" edge="1" parent="1" source="tJ93AyjyxHUTEYS6ZVMy-6">
          <mxGeometry relative="1" as="geometry">
            <mxPoint x="345" y="1030" as="targetPoint" />
          </mxGeometry>
        </mxCell>
        <mxCell id="tJ93AyjyxHUTEYS6ZVMy-6" value="&lt;font style=&quot;font-size: 16px;&quot;&gt;Tweet Ingestion Service&lt;/font&gt;" style="whiteSpace=wrap;html=1;fontSize=24;fillColor=none;rounded=1;" vertex="1" parent="1">
          <mxGeometry x="285" y="820" width="120" height="60" as="geometry" />
        </mxCell>
        <mxCell id="tJ93AyjyxHUTEYS6ZVMy-10" value="DB" style="shape=cylinder3;whiteSpace=wrap;html=1;boundedLbl=1;backgroundOutline=1;size=15;fontSize=18;fillColor=none;" vertex="1" parent="1">
          <mxGeometry x="520" y="810" width="60" height="80" as="geometry" />
        </mxCell>
        <mxCell id="tJ93AyjyxHUTEYS6ZVMy-12" value="Cassandra" style="text;html=1;align=center;verticalAlign=middle;resizable=0;points=[];autosize=1;strokeColor=none;fillColor=none;fontSize=16;" vertex="1" parent="1">
          <mxGeometry x="590" y="835" width="100" height="30" as="geometry" />
        </mxCell>
        <mxCell id="tJ93AyjyxHUTEYS6ZVMy-13" value="&lt;font style=&quot;font-size: 18px;&quot;&gt;Short URL&lt;/font&gt;" style="whiteSpace=wrap;html=1;fontSize=24;fillColor=none;rounded=1;" vertex="1" parent="1">
          <mxGeometry x="210" y="920" width="120" height="60" as="geometry" />
        </mxCell>
        <mxCell id="tJ93AyjyxHUTEYS6ZVMy-17" value="Asset Service" style="rounded=1;whiteSpace=wrap;html=1;fontSize=18;fillColor=none;" vertex="1" parent="1">
          <mxGeometry x="350" y="920" width="120" height="60" as="geometry" />
        </mxCell>
        <mxCell id="tJ93AyjyxHUTEYS6ZVMy-21" value="" style="edgeStyle=orthogonalEdgeStyle;rounded=0;orthogonalLoop=1;jettySize=auto;html=1;fontSize=18;" edge="1" parent="1" source="tJ93AyjyxHUTEYS6ZVMy-19" target="tJ93AyjyxHUTEYS6ZVMy-20">
          <mxGeometry relative="1" as="geometry" />
        </mxCell>
        <mxCell id="tJ93AyjyxHUTEYS6ZVMy-19" value="Kafka Q" style="strokeWidth=2;html=1;shape=mxgraph.flowchart.direct_data;whiteSpace=wrap;fontSize=18;fillColor=none;" vertex="1" parent="1">
          <mxGeometry x="286" y="1030" width="125" height="60" as="geometry" />
        </mxCell>
        <mxCell id="tJ93AyjyxHUTEYS6ZVMy-20" value="Tweet Tokeniser" style="whiteSpace=wrap;html=1;fontSize=18;fillColor=none;strokeWidth=2;" vertex="1" parent="1">
          <mxGeometry x="83.5" y="1030" width="120" height="60" as="geometry" />
        </mxCell>
      </root>
    </mxGraphModel>
  </diagram>
</mxfile>
